<?xml version="1.0" standalone="no"?>
<!DOCTYPE svg PUBLIC "-//W3C//DTD SVG 20010904//EN"
 "http://www.w3.org/TR/2001/REC-SVG-20010904/DTD/svg10.dtd">
<svg version="1.0" xmlns="http://www.w3.org/2000/svg"
 width="362.000000pt" height="362.000000pt" viewBox="0 0 362.000000 362.000000"
 preserveAspectRatio="xMidYMid meet">
<metadata>
Created by potrace 1.16, written by Peter Selinger 2001-2019
</metadata>
<g transform="translate(0.000000,362.000000) scale(0.100000,-0.100000)"
fill="#000000" stroke="none">
<path d="M1685 3594 c-16 -2 -70 -9 -120 -15 -115 -14 -303 -61 -414 -104
-426 -162 -760 -464 -966 -872 -141 -281 -202 -594 -177 -906 21 -246 76 -446
183 -661 40 -81 56 -123 49 -131 -11 -13 6 -35 26 -35 7 0 44 -42 82 -93 327
-433 800 -692 1345 -736 124 -10 322 -5 362 9 10 4 -64 10 -165 13 -167 6
-310 23 -327 40 -16 17 38 18 127 3 118 -19 152 -20 205 -4 38 11 31 13 -110
25 -462 39 -818 182 -1125 449 -99 86 -170 161 -233 245 -32 43 -34 59 -7 59
11 0 20 -4 20 -8 0 -12 119 -154 188 -226 150 -155 420 -318 647 -390 205 -65
337 -81 575 -73 339 12 593 91 870 268 70 45 196 147 235 190 l30 33 -40 -34
c-112 -95 -335 -220 -495 -278 -232 -84 -393 -112 -635 -112 -417 0 -743 113
-1055 366 -71 58 -260 257 -260 274 0 4 84 28 188 54 465 120 630 181 831 308
118 74 284 203 349 272 49 51 50 55 57 129 10 106 1 144 -44 187 -63 60 -203
92 -458 106 -73 3 -133 10 -133 14 0 4 81 78 180 164 192 168 329 309 356 364
20 42 14 80 -26 159 -34 68 -61 95 -110 112 -48 17 -236 25 -285 13 -37 -10
-216 -86 -375 -160 -114 -53 -282 -171 -353 -247 -65 -70 -79 -140 -32 -171
44 -29 80 -11 176 88 114 117 123 116 127 -12 2 -52 -2 -169 -8 -260 -7 -91
-13 -310 -15 -487 -2 -177 -6 -332 -10 -345 -9 -28 -23 -38 -55 -38 -14 0 -50
-13 -81 -30 -56 -29 -309 -120 -335 -120 -22 0 -114 188 -160 327 -61 186 -92
449 -74 636 14 145 48 297 95 422 36 95 156 349 176 370 14 14 11 25 -8 25
-20 -1 -77 -71 -88 -110 -4 -14 -21 -52 -37 -85 -142 -281 -214 -630 -188
-907 23 -253 70 -422 166 -607 29 -57 51 -108 48 -112 -11 -18 -29 -8 -48 24
-90 156 -158 334 -196 512 -27 129 -38 397 -21 528 76 575 426 1049 976 1318
253 123 501 179 797 179 410 -1 787 -138 1128 -411 l65 -53 -55 58 c-30 32
-97 89 -148 128 -51 39 -90 73 -88 76 3 2 42 -22 88 -54 405 -280 630 -620
728 -1099 18 -87 18 -88 19 -38 1 77 -36 255 -76 363 -90 243 -243 473 -436
656 -293 278 -748 448 -1227 459 -91 2 -178 2 -195 -1z m10 -938 c19 -8 35
-20 35 -27 0 -21 -74 -111 -176 -214 -199 -201 -416 -370 -465 -363 -30 4 -35
33 -40 232 l-4 150 50 38 c67 51 207 119 335 162 117 40 205 47 265 22z m43
-847 c106 -22 106 -53 1 -164 -111 -116 -323 -271 -479 -350 -76 -38 -201 -85
-228 -85 -13 0 -14 27 -8 198 4 108 11 217 16 242 5 25 9 48 10 52 1 23 155
66 330 92 186 28 282 32 358 15z"/>
<path d="M3015 2850 c-13 -14 -31 -20 -64 -20 -58 -1 -127 -29 -277 -115 -246
-140 -524 -348 -557 -417 -19 -39 -11 -69 37 -138 34 -50 36 -56 36 -134 0
-44 -14 -193 -31 -331 -16 -137 -33 -309 -36 -382 l-6 -132 31 -30 c65 -66 76
-44 131 285 33 194 53 272 79 313 22 35 29 39 66 39 43 0 116 30 291 121 197
101 602 338 585 342 -112 26 -314 -37 -720 -224 -98 -45 -190 -71 -202 -59
-34 34 -26 216 13 278 47 77 247 237 404 325 33 18 106 63 163 101 99 65 155
87 187 74 20 -7 29 16 21 49 -7 27 -79 75 -113 75 -11 0 -28 -9 -38 -20z"/>
<path d="M3372 1033 c-148 -220 -378 -457 -580 -599 -113 -79 -110 -86 3 -11
253 168 474 400 619 650 45 76 21 54 -42 -40z"/>
</g>
</svg>
