<?xml version="1.0" standalone="no"?>
<!DOCTYPE svg PUBLIC "-//W3C//DTD SVG 20010904//EN"
 "http://www.w3.org/TR/2001/REC-SVG-20010904/DTD/svg10.dtd">
<svg version="1.0" xmlns="http://www.w3.org/2000/svg"
 width="1032.000000pt" height="1032.000000pt" viewBox="0 0 1032.000000 1032.000000"
 preserveAspectRatio="xMidYMid meet">

<g transform="translate(0.000000,1032.000000) scale(0.100000,-0.100000)"
fill="#000000" stroke="none">
<path d="M2200 6100 c0 -1336 2 -2430 5 -2430 3 0 87 84 187 188 101 103 249
255 330 338 l148 151 0 1294 0 1294 1148 -1148 1147 -1147 1145 1145 c630 630
1148 1145 1152 1145 5 0 8 -588 8 -1308 l0 -1307 323 -323 c177 -177 325 -322
330 -322 4 0 7 1094 7 2430 0 1337 -3 2430 -8 2430 -4 0 -671 -664 -1482
-1475 l-1475 -1475 -1475 1475 c-811 811 -1478 1475 -1483 1475 -4 0 -7 -1093
-7 -2430z"/>
<path d="M4722 7127 l-432 -432 235 -235 235 -235 198 198 c108 108 202 197
207 197 5 0 98 -88 205 -195 l195 -195 235 235 235 235 -430 430 c-236 237
-434 430 -440 430 -6 0 -205 -195 -443 -433z"/>
<path d="M3392 5797 l-182 -182 0 -470 0 -470 420 420 420 420 -232 232 c-128
128 -235 233 -238 233 -3 0 -87 -82 -188 -183z"/>
<path d="M6512 5747 l-232 -232 420 -420 420 -420 0 470 0 470 -183 183 c-100
100 -184 182 -187 182 -3 0 -110 -105 -238 -233z"/>
<path d="M3533 4422 l-323 -330 0 -758 0 -759 330 330 330 330 -1 335 c-1 184
-5 526 -8 759 l-6 424 -322 -331z"/>
<path d="M6465 3996 l-7 -759 331 -331 331 -331 0 760 -1 760 -323 330 -323
330 -8 -759z"/>
<path d="M2533 3540 l-333 -344 0 -760 0 -761 335 335 335 335 -2 769 -3 769
-332 -343z"/>
<path d="M7468 3092 l2 -757 330 -330 330 -330 0 760 0 760 -328 328 c-180
180 -329 327 -332 327 -3 0 -4 -341 -2 -758z"/>
</g>
</svg>
